<svg width="16" height="16" viewBox="0 0 16 16" fill="none" xmlns="http://www.w3.org/2000/svg">
<path d="M10 11.6659C10 12.2859 10 12.5959 9.93187 12.8503C9.74693 13.5405 9.2078 14.0795 8.51767 14.2645C8.26333 14.3326 7.95333 14.3326 7.33333 14.3326H6C4.11438 14.3326 3.17157 14.3326 2.58579 13.7469C2 13.1611 2 12.2183 2 10.3326V5.66735C2 3.78187 2 2.83914 2.58573 2.25336C3.17145 1.66759 4.11419 1.66751 5.99967 1.66735L7.3344 1.66724C7.9532 1.66719 8.26267 1.66716 8.51653 1.73503C9.20753 1.91977 9.74733 2.45948 9.93213 3.15049C10 3.40437 10 3.71379 10 4.33262" stroke="#EF365E" stroke-linecap="round" stroke-linejoin="round"/>
<path d="M10 13.0008C11.8856 13.0008 12.8284 13.0008 13.4142 12.415C14 11.8292 14 10.8864 14 9.00076V7.00076C14 5.11511 14 4.17231 13.4142 3.58652C12.8284 3.00073 11.8856 3.00073 10 3.00073" stroke="#EF365E" stroke-linecap="round" stroke-linejoin="round"/>
<path d="M10.6667 8.00068H6M9.66673 6.33398C9.66673 6.33398 11.3333 7.56148 11.3333 8.00068C11.3333 8.43988 9.66667 9.66734 9.66667 9.66734" stroke="#EF365E" stroke-linecap="round" stroke-linejoin="round"/>
</svg>
