<svg width="16" height="16" viewBox="0 0 16 16" fill="none" xmlns="http://www.w3.org/2000/svg">
<path d="M5.22105 14.2318L4.87545 13.7717C4.5718 13.3673 3.927 13.3999 3.6705 13.8325C3.31052 14.4396 2.33337 14.1977 2.33337 13.5015V2.49842C2.33337 1.80219 3.31052 1.56025 3.6705 2.16735C3.927 2.59994 4.5718 2.63251 4.87545 2.22821L5.22105 1.76807C5.65649 1.18831 6.56581 1.18831 7.00124 1.76807L7.05557 1.84043C7.51764 2.45557 8.48244 2.45557 8.94451 1.84043L8.99884 1.76807C9.43424 1.18831 10.3436 1.18831 10.779 1.76807L11.1246 2.22821C11.4283 2.63251 12.0731 2.59994 12.3296 2.16735C12.6896 1.56025 13.6667 1.80219 13.6667 2.49841V13.5015C13.6667 14.1977 12.6896 14.4396 12.3296 13.8325C12.0731 13.3999 11.4283 13.3673 11.1246 13.7717L10.779 14.2318C10.3436 14.8115 9.43424 14.8115 8.99884 14.2318L8.94451 14.1594C8.48244 13.5443 7.51764 13.5443 7.05557 14.1594L7.00124 14.2318C6.56581 14.8115 5.65649 14.8115 5.22105 14.2318Z" stroke="#8C8C8C" stroke-linejoin="round"/>
<path d="M10 6L6 10" stroke="#8C8C8C" stroke-linecap="round" stroke-linejoin="round"/>
<path d="M10 10H9.994M6.00598 6H6" stroke="#8C8C8C" stroke-linecap="round" stroke-linejoin="round"/>
</svg>
