<svg width="41" height="42" viewBox="0 0 41 42" fill="none" xmlns="http://www.w3.org/2000/svg">
<path d="M23.5284 4.50201L26.909 11.319C27.37 12.2679 28.5993 13.1781 29.6366 13.3524L35.7637 14.3789C39.6821 15.0373 40.6042 17.9036 37.7806 20.731L33.0171 25.5339C32.2103 26.3472 31.7687 27.9159 32.0182 29.0393L33.3821 34.9847C34.4577 39.6907 31.9798 41.5112 27.8503 39.0516L22.1071 35.6238C21.07 35.0041 19.3605 35.0041 18.304 35.6238L12.561 39.0516C8.45051 41.5112 5.95353 39.6713 7.02916 34.9847L8.3929 29.0393C8.64259 27.9159 8.20082 26.3472 7.39409 25.5339L2.6306 20.731C-0.173718 17.9036 0.729045 15.0373 4.6474 14.3789L10.7746 13.3524C11.7926 13.1781 13.0219 12.2679 13.4829 11.319L16.8634 4.50201C18.7074 0.803039 21.7037 0.803039 23.5284 4.50201Z" stroke="#1E3A8A" stroke-width="2" stroke-linecap="round" stroke-linejoin="round"/>
</svg>
