<svg width="47" height="47" viewBox="0 0 47 47" fill="none" xmlns="http://www.w3.org/2000/svg">
<path d="M32.8149 20.7201C32.8149 20.056 32.8149 19.724 32.9148 19.4282C33.2053 18.5685 33.971 18.2348 34.738 17.8854C35.6004 17.4927 36.0314 17.2963 36.4586 17.2617C36.9437 17.2225 37.4295 17.327 37.8441 17.5597C38.3937 17.8681 38.7769 18.4541 39.1693 18.9307C40.9816 21.1317 41.8875 22.2325 42.2191 23.4461C42.4867 24.4254 42.4867 25.4497 42.2191 26.429C41.7356 28.1992 40.2078 29.6832 39.0769 31.0567C38.4985 31.7592 38.2092 32.1105 37.8441 32.3155C37.4295 32.5481 36.9437 32.6526 36.4586 32.6134C36.0314 32.5788 35.6004 32.3825 34.738 31.9897C33.971 31.6402 33.2053 31.3068 32.9148 30.4469C32.8149 30.1511 32.8149 29.8192 32.8149 29.1551V20.7201Z" stroke="#1E3A8A" stroke-width="2"/>
<path d="M13.6049 20.7203C13.6049 19.8843 13.5814 19.1328 12.9055 18.545C12.6596 18.3311 12.3337 18.1827 11.6818 17.8858C10.8195 17.493 10.3883 17.2966 9.9611 17.262C8.67933 17.1584 7.98972 18.0332 7.25054 18.931C5.43833 21.1321 4.53223 22.2326 4.20067 23.4463C3.93311 24.4258 3.93311 25.4501 4.20067 26.4294C4.68425 28.1996 6.21204 29.6834 7.3429 31.057C8.05574 31.9228 8.73669 32.7127 9.9611 32.6138C10.3883 32.5792 10.8195 32.3827 11.6818 31.9901C12.3337 31.6931 12.6596 31.5446 12.9055 31.3308C13.5814 30.743 13.6049 29.9917 13.6049 29.1555V20.7203Z" stroke="#1E3A8A" stroke-width="2"/>
<path d="M9.76318 17.2536C9.76318 10.8881 15.7835 5.72778 23.21 5.72778C30.6365 5.72778 36.6569 10.8881 36.6569 17.2536" stroke="#1E3A8A" stroke-width="2" stroke-linecap="square" stroke-linejoin="round"/>
<path d="M36.6562 32.6213V34.1581C36.6562 37.5531 33.216 40.3052 28.9723 40.3052H25.1304" stroke="#1E3A8A" stroke-width="2" stroke-linecap="round" stroke-linejoin="round"/>
</svg>
