<svg width="17" height="16" viewBox="0 0 17 16" fill="none" xmlns="http://www.w3.org/2000/svg">
<path d="M9.43896 11.1118C9.43896 11.1118 9.85563 11.1118 10.2723 12.0007C10.2723 12.0007 11.5958 9.77845 12.7723 9.33398" stroke="#4B61A1" stroke-linecap="round" stroke-linejoin="round"/>
<path d="M11.7954 4.66699H11.8014" stroke="#4B61A1" stroke-linecap="round" stroke-linejoin="round"/>
<path d="M8.4624 4.66699H8.4684" stroke="#4B61A1" stroke-linecap="round" stroke-linejoin="round"/>
<path d="M5.12891 4.66699H5.13489" stroke="#4B61A1" stroke-linecap="round" stroke-linejoin="round"/>
<path d="M5.76145 7.97867H3.83913C2.73145 7.97867 1.8335 7.08327 1.8335 5.97868V3.33203C1.8335 2.22746 2.73145 1.33203 3.83913 1.33203H13.1612C14.2689 1.33203 15.1668 2.22746 15.1668 3.33203V6.08596" stroke="#4B61A1" stroke-linecap="round" stroke-linejoin="round"/>
<path d="M15.1666 10.667C15.1666 8.45786 13.3706 6.66699 11.1553 6.66699C8.93996 6.66699 7.14404 8.45786 7.14404 10.667C7.14404 12.8761 8.93996 14.667 11.1553 14.667C13.3706 14.667 15.1666 12.8761 15.1666 10.667Z" stroke="#4B61A1" stroke-linecap="round"/>
</svg>
