<svg width="100" height="100" viewBox="0 0 100 100" fill="none" xmlns="http://www.w3.org/2000/svg">
<path d="M50.0003 98.8287C76.9675 98.8287 98.8287 76.9675 98.8287 50.0003C98.8287 23.0331 76.9675 1.17188 50.0003 1.17188C23.0331 1.17188 1.17188 23.0331 1.17188 50.0003C1.17188 76.9675 23.0331 98.8287 50.0003 98.8287Z" fill="#DB4437"/>
<path fill-rule="evenodd" clip-rule="evenodd" d="M70.8311 39.1904L67.0329 77.4575C66.8161 79.6392 65.1552 81.3895 62.9619 81.3895H37.0382C34.8455 81.3895 33.184 79.6404 32.9677 77.4575L29.1689 39.1904H70.8311ZM40.9765 46.7482C40.9482 46.2092 41.1347 45.6809 41.495 45.279C41.8554 44.8771 42.3603 44.6344 42.8993 44.604C43.4383 44.5755 43.9667 44.7618 44.3687 45.1221C44.7707 45.4824 45.0136 45.9873 45.0441 46.5262L46.3561 70.5952C46.3835 71.0113 46.2804 71.4256 46.0613 71.7804C45.8421 72.1351 45.5178 72.4127 45.1335 72.5745C44.337 72.92 43.4541 72.7423 42.8532 72.1155C42.5158 71.7651 42.3156 71.3052 42.2891 70.8196L40.9765 46.7482ZM57.1014 44.604C57.6396 44.6362 58.1434 44.8794 58.5033 45.2809C58.8632 45.6824 59.0502 46.2097 59.0236 46.7482L57.7115 70.8167C57.6934 71.2331 57.546 71.6335 57.2898 71.9621C57.0336 72.2908 56.6812 72.5315 56.2819 72.6506C55.8853 72.7787 55.4587 72.7799 55.0614 72.6542C54.6641 72.5286 54.3158 72.2822 54.065 71.9494C53.7668 71.564 53.6173 71.0841 53.644 70.5975L54.9566 46.5262C54.9871 45.9874 55.2299 45.4826 55.6318 45.1223C56.0336 44.7621 56.5624 44.5757 57.1014 44.604Z" fill="white"/>
<path d="M71.32 30.6357H28.6802C26.7032 30.6357 25.1006 32.2384 25.1006 34.2154V34.216C25.1006 36.193 26.7032 37.7956 28.6802 37.7956H71.32C73.2969 37.7956 74.8996 36.193 74.8996 34.216V34.2154C74.8996 32.2384 73.2969 30.6357 71.32 30.6357Z" fill="white"/>
<path fill-rule="evenodd" clip-rule="evenodd" d="M62.3717 30.9843H58.8076V26.4052C58.8076 24.0782 56.9045 22.1744 54.5775 22.1744H45.4228C43.0957 22.1744 41.192 24.0776 41.192 26.4052V30.9843H37.6279V26.4052C37.6279 22.111 41.1286 18.6104 45.4222 18.6104H54.5775C58.8711 18.6104 62.3717 22.111 62.3717 26.4046V30.9843Z" fill="white"/>
</svg>
