<svg width="20" height="20" viewBox="0 0 20 20" fill="none" xmlns="http://www.w3.org/2000/svg">
<path d="M14.1216 2.64454C14.611 2.15514 14.8557 1.91045 15.1268 1.79344C15.5173 1.62484 15.9601 1.62484 16.3507 1.79344C16.6217 1.91045 16.8664 2.15514 17.3558 2.64454C17.8452 3.13393 18.0899 3.37862 18.2069 3.6497C18.3755 4.04024 18.3755 4.48303 18.2069 4.87357C18.0899 5.14465 17.8452 5.38934 17.3558 5.87874L13.1712 10.0634C12.1402 11.0944 11.6247 11.6099 10.979 11.9153C10.3333 12.2207 9.60783 12.2923 8.15686 12.4355L7.5 12.5003L7.56482 11.8435C7.70798 10.3925 7.77958 9.667 8.08501 9.02133C8.39042 8.37566 8.90592 7.86019 9.93692 6.82919L14.1216 2.64454Z" stroke="#828282" stroke-width="1.25" stroke-linejoin="round"/>
<path d="M5.00008 12.5H3.12508C2.31966 12.5 1.66675 13.1529 1.66675 13.9583C1.66675 14.7638 2.31966 15.4167 3.12508 15.4167H11.0417C11.8472 15.4167 12.5001 16.0696 12.5001 16.875C12.5001 17.6804 11.8472 18.3333 11.0417 18.3333H9.16675" stroke="#828282" stroke-width="1.25" stroke-linecap="round" stroke-linejoin="round"/>
</svg>
