<svg width="16" height="16" viewBox="0 0 16 16" fill="none" xmlns="http://www.w3.org/2000/svg">
<g clip-path="url(#clip0_475_8541)">
<path d="M11.2973 2.11504C11.6888 1.72353 11.8845 1.52778 12.1014 1.43416C12.4139 1.29929 12.7681 1.29929 13.0805 1.43416C13.2973 1.52778 13.4931 1.72353 13.8846 2.11504C14.2761 2.50656 14.4719 2.70231 14.5655 2.91918C14.7004 3.23161 14.7004 3.58584 14.5655 3.89827C14.4719 4.11514 14.2761 4.31089 13.8846 4.7024L10.5369 8.05014C9.71213 8.87494 9.29973 9.28734 8.7832 9.53168C8.26667 9.77601 7.68627 9.83328 6.52549 9.94781L6 9.99968L6.05185 9.47421C6.16639 8.31341 6.22366 7.73301 6.46801 7.21648C6.71233 6.69994 7.12473 6.28756 7.94953 5.46277L11.2973 2.11504Z" stroke="white" stroke-linejoin="round"/>
<path d="M4.00016 10H2.50016C1.85583 10 1.3335 10.5223 1.3335 11.1667C1.3335 11.811 1.85583 12.3333 2.50016 12.3333H8.8335C9.47783 12.3333 10.0002 12.8557 10.0002 13.5C10.0002 14.1443 9.47783 14.6667 8.8335 14.6667H7.3335" stroke="white" stroke-linecap="round" stroke-linejoin="round"/>
</g>
<defs>
<clipPath id="clip0_475_8541">
<rect width="16" height="16" fill="white"/>
</clipPath>
</defs>
</svg>
