<svg width="20" height="21" viewBox="0 0 20 21" fill="none" xmlns="http://www.w3.org/2000/svg">
<path d="M6.6665 4.29004V3.04004M13.3332 4.29004V3.04004" stroke="#141B34" stroke-width="1.25" stroke-linecap="round" stroke-linejoin="round"/>
<path d="M16.25 7.20703H17.5M16.25 13.8737H17.5" stroke="#141B34" stroke-width="1.25" stroke-linecap="round" stroke-linejoin="round"/>
<path d="M6.6665 18.04V16.79M13.3332 18.04V16.79" stroke="#141B34" stroke-width="1.25" stroke-linecap="round" stroke-linejoin="round"/>
<path d="M2.5 7.20703H3.75M2.5 13.8737H3.75" stroke="#141B34" stroke-width="1.25" stroke-linecap="round" stroke-linejoin="round"/>
<path d="M6.6665 9.70703C6.6665 8.52852 6.6665 7.93926 7.03262 7.57315C7.39874 7.20703 7.988 7.20703 9.1665 7.20703H10.8332C12.0117 7.20703 12.6009 7.20703 12.9671 7.57315C13.3332 7.93926 13.3332 8.52852 13.3332 9.70703V11.3737C13.3332 12.5522 13.3332 13.1414 12.9671 13.5076C12.6009 13.8737 12.0117 13.8737 10.8332 13.8737H9.1665C7.988 13.8737 7.39874 13.8737 7.03262 13.5076C6.6665 13.1414 6.6665 12.5522 6.6665 11.3737V9.70703Z" stroke="#141B34" stroke-width="1.25"/>
</svg>
