<svg width="17" height="16" viewBox="0 0 17 16" fill="none" xmlns="http://www.w3.org/2000/svg">
<path d="M3.34504 12.5631C3.49496 13.6767 4.41726 14.549 5.53961 14.6006C6.48402 14.644 7.44337 14.6667 8.49984 14.6667C9.5563 14.6667 10.5156 14.644 11.46 14.6006C12.5824 14.549 13.5047 13.6767 13.6546 12.5631C13.7525 11.8365 13.8332 11.0917 13.8332 10.3333C13.8332 9.57493 13.7525 8.8302 13.6546 8.10353C13.5047 6.99 12.5824 6.11766 11.46 6.06606C10.5156 6.02265 9.5563 6 8.49984 6C7.44337 6 6.48402 6.02265 5.53961 6.06606C4.41726 6.11766 3.49496 6.99 3.34504 8.10353C3.2472 8.8302 3.1665 9.57493 3.1665 10.3333C3.1665 11.0917 3.2472 11.8365 3.34504 12.5631Z" stroke="#4B61A1"/>
<path d="M5.5 6.00016V4.3335C5.5 2.67664 6.84315 1.3335 8.5 1.3335C10.1569 1.3335 11.5 2.67664 11.5 4.3335V6.00016" stroke="#4B61A1" stroke-linecap="round" stroke-linejoin="round"/>
<path d="M11.1665 10.3267V10.3333" stroke="#4B61A1" stroke-linecap="round" stroke-linejoin="round"/>
<path d="M8.5 10.3267V10.3333" stroke="#4B61A1" stroke-linecap="round" stroke-linejoin="round"/>
<path d="M5.8335 10.3267V10.3333" stroke="#4B61A1" stroke-linecap="round" stroke-linejoin="round"/>
</svg>
