<svg width="17" height="16" viewBox="0 0 17 16" fill="none" xmlns="http://www.w3.org/2000/svg">
<path d="M15.1665 13.333H7.1665C5.28088 13.333 4.33808 13.333 3.75229 12.7472C3.1665 12.1614 3.1665 11.2186 3.1665 9.33301V1.33301" stroke="#141414" stroke-linecap="round"/>
<path d="M4.5 13.333C6.95582 10.9573 9.71567 7.80672 13.8333 10.1697" stroke="#141414"/>
<path d="M1.8335 2.66699H9.8335C11.7191 2.66699 12.6619 2.66699 13.2477 3.25278C13.8335 3.83857 13.8335 4.78137 13.8335 6.66699V14.667" stroke="#141414" stroke-linecap="round"/>
<path d="M6.1665 6.66699C6.71879 6.66699 7.1665 6.21928 7.1665 5.66699C7.1665 5.11471 6.71879 4.66699 6.1665 4.66699C5.61422 4.66699 5.1665 5.11471 5.1665 5.66699C5.1665 6.21928 5.61422 6.66699 6.1665 6.66699Z" stroke="#141414" stroke-linecap="round" stroke-linejoin="round"/>
</svg>
