<svg width="120" height="120" viewBox="0 0 120 120" fill="none" xmlns="http://www.w3.org/2000/svg">
<path d="M60.0008 24.5802C58.8688 24.5802 57.7831 24.1304 56.9826 23.33C56.1821 22.5295 55.7324 21.4438 55.7324 20.3117V12.9716C55.7324 11.8395 56.1821 10.7538 56.9826 9.95332C57.7831 9.15283 58.8688 8.70313 60.0008 8.70312C61.1329 8.70312 62.2186 9.15283 63.0191 9.95332C63.8195 10.7538 64.2693 11.8395 64.2693 12.9716V20.3117C64.2693 21.4438 63.8195 22.5295 63.0191 23.33C62.2186 24.1304 61.1329 24.5802 60.0008 24.5802ZM60.0008 111.297C58.8688 111.297 57.7831 110.847 56.9826 110.046C56.1821 109.246 55.7324 108.16 55.7324 107.028V99.688C55.7324 98.5559 56.1821 97.4702 56.9826 96.6697C57.7831 95.8692 58.8688 95.4195 60.0008 95.4195C61.1329 95.4195 62.2186 95.8692 63.0191 96.6697C63.8195 97.4702 64.2693 98.5559 64.2693 99.688V107.028C64.2693 108.16 63.8195 109.246 63.0191 110.046C62.2186 110.847 61.1329 111.297 60.0008 111.297ZM95.4205 59.9998C95.4205 58.8678 95.8702 57.7821 96.6707 56.9816C97.4712 56.1811 98.5569 55.7314 99.6889 55.7314H107.029C108.161 55.7314 109.247 56.1811 110.047 56.9816C110.848 57.7821 111.298 58.8678 111.298 59.9998C111.298 61.1319 110.848 62.2176 110.047 63.0181C109.247 63.8186 108.161 64.2683 107.029 64.2683H99.6889C98.5569 64.2683 97.4712 63.8186 96.6707 63.0181C95.8702 62.2176 95.4205 61.1319 95.4205 59.9998ZM8.7041 59.9998C8.7041 58.8678 9.15381 57.7821 9.9543 56.9816C10.7548 56.1811 11.8405 55.7314 12.9725 55.7314H20.3127C21.4448 55.7314 22.5304 56.1811 23.3309 56.9816C24.1314 57.7821 24.5811 58.8678 24.5811 59.9998C24.5811 61.1319 24.1314 62.2176 23.3309 63.0181C22.5304 63.8186 21.4448 64.2683 20.3127 64.2683H12.9725C11.8405 64.2683 10.7548 63.8186 9.9543 63.0181C9.15381 62.2176 8.7041 61.1319 8.7041 59.9998ZM85.0466 34.9541C84.6502 34.5577 84.3358 34.0872 84.1213 33.5694C83.9068 33.0515 83.7964 32.4965 83.7964 31.936C83.7964 31.3755 83.9068 30.8205 84.1213 30.3026C84.3358 29.7848 84.6502 29.3143 85.0466 28.918L90.2366 23.728C90.6329 23.3316 91.1034 23.0172 91.6213 22.8027C92.1391 22.5882 92.6941 22.4778 93.2546 22.4778C93.8152 22.4778 94.3702 22.5882 94.888 22.8027C95.4059 23.0172 95.8764 23.3316 96.2727 23.728C96.6691 24.1243 96.9835 24.5948 97.198 25.1126C97.4125 25.6305 97.5229 26.1855 97.5229 26.746C97.5229 27.3065 97.4125 27.8615 97.198 28.3794C96.9835 28.8972 96.6691 29.3677 96.2727 29.7641L91.0827 34.9541C90.6864 35.3504 90.2159 35.6648 89.698 35.8793C89.1802 36.0939 88.6252 36.2043 88.0647 36.2043C87.5041 36.2043 86.9491 36.0939 86.4313 35.8793C85.9134 35.6648 85.4429 35.3504 85.0466 34.9541ZM23.7289 96.2722C23.3326 95.8759 23.0182 95.4053 22.8037 94.8875C22.5892 94.3697 22.4787 93.8147 22.4787 93.2541C22.4787 92.6936 22.5892 92.1386 22.8037 91.6208C23.0182 91.1029 23.3326 90.6324 23.7289 90.2361L28.9189 85.0461C29.3153 84.6497 29.7858 84.3353 30.3036 84.1208C30.8215 83.9063 31.3765 83.7959 31.937 83.7959C32.4975 83.7959 33.0525 83.9063 33.5704 84.1208C34.0882 84.3353 34.5587 84.6497 34.955 85.0461C35.3514 85.4424 35.6658 85.9129 35.8803 86.4308C36.0948 86.9486 36.2052 87.5036 36.2052 88.0641C36.2052 88.6246 36.0948 89.1797 35.8803 89.6975C35.6658 90.2153 35.3514 90.6859 34.955 91.0822L29.765 96.2722C29.3687 96.6685 28.8982 96.983 28.3804 97.1975C27.8625 97.412 27.3075 97.5224 26.747 97.5224C26.1865 97.5224 25.6315 97.412 25.1136 97.1975C24.5958 96.983 24.1253 96.6685 23.7289 96.2722ZM85.0466 85.0456C85.4429 84.6493 85.9134 84.3349 86.4313 84.1203C86.9491 83.9058 87.5041 83.7954 88.0647 83.7954C88.6252 83.7954 89.1802 83.9058 89.698 84.1203C90.2159 84.3349 90.6864 84.6493 91.0827 85.0456L96.2727 90.2356C96.6691 90.632 96.9835 91.1025 97.198 91.6203C97.4125 92.1381 97.5229 92.6932 97.5229 93.2537C97.5229 93.8142 97.4125 94.3692 97.198 94.887C96.9835 95.4049 96.6691 95.8754 96.2727 96.2717C95.8764 96.6681 95.4059 96.9825 94.888 97.197C94.3702 97.4115 93.8152 97.5219 93.2546 97.5219C92.6941 97.5219 92.1391 97.4115 91.6213 97.197C91.1034 96.9825 90.6329 96.6681 90.2366 96.2717L85.0466 91.0817C84.6502 90.6854 84.3358 90.2149 84.1213 89.697C83.9068 89.1792 83.7964 88.6242 83.7964 88.0637C83.7964 87.5032 83.9068 86.9481 84.1213 86.4303C84.3358 85.9125 84.6502 85.4419 85.0466 85.0456ZM23.7285 23.728C24.1248 23.3316 24.5953 23.0172 25.1132 22.8027C25.631 22.5882 26.186 22.4778 26.7465 22.4778C27.307 22.4778 27.8621 22.5882 28.3799 22.8027C28.8977 23.0172 29.3682 23.3316 29.7646 23.728L34.9546 28.918C35.3509 29.3143 35.6653 29.7848 35.8799 30.3026C36.0944 30.8205 36.2048 31.3755 36.2048 31.936C36.2048 32.4965 36.0944 33.0515 35.8799 33.5694C35.6653 34.0872 35.3509 34.5577 34.9546 34.9541C34.5582 35.3504 34.0877 35.6648 33.5699 35.8793C33.0521 36.0939 32.497 36.2043 31.9365 36.2043C31.376 36.2043 30.821 36.0939 30.3032 35.8793C29.7853 35.6648 29.3148 35.3504 28.9185 34.9541L23.7285 29.7641C23.3321 29.3677 23.0177 28.8972 22.8032 28.3794C22.5887 27.8615 22.4783 27.3065 22.4783 26.746C22.4783 26.1855 22.5887 25.6305 22.8032 25.1126C23.0177 24.5948 23.3321 24.1243 23.7285 23.728Z" fill="#76A34F"/>
<path d="M73.3688 27.1993C72.3205 26.7721 71.4848 25.9459 71.0457 24.9025C70.6065 23.8591 70.5997 22.684 71.0269 21.6357L73.7973 14.8384C74.2288 13.7963 75.0553 12.9674 76.096 12.5328C77.1368 12.0981 78.3073 12.0931 79.3518 12.5188C80.3963 12.9444 81.2298 13.7662 81.6703 14.8045C82.1108 15.8428 82.1225 17.0132 81.7027 18.0601L78.9324 24.8574C78.5052 25.9057 77.679 26.7414 76.6356 27.1806C75.5923 27.6198 74.4172 27.6265 73.3688 27.1993ZM40.6402 107.502C39.5919 107.075 38.7562 106.249 38.3171 105.205C37.8779 104.162 37.8711 102.987 38.2984 101.939L41.0687 95.1413C41.5002 94.0993 42.3267 93.2704 43.3674 92.8357C44.4082 92.4011 45.5787 92.3961 46.6232 92.8217C47.6677 93.2474 48.5012 94.0691 48.9417 95.1074C49.3822 96.1457 49.3939 97.3162 48.9741 98.3631L46.2038 105.16C45.9923 105.68 45.6806 106.152 45.2866 106.551C44.8925 106.949 44.4237 107.266 43.9071 107.484C43.3905 107.701 42.836 107.815 42.2755 107.818C41.715 107.821 41.1593 107.714 40.6402 107.502ZM92.8009 73.3679C93.2281 72.3196 94.0543 71.4839 95.0976 71.0447C96.141 70.6055 97.3161 70.5988 98.3644 71.026L105.162 73.7963C106.204 74.2279 107.033 75.0543 107.467 76.0951C107.902 77.1359 107.907 78.3064 107.481 79.3509C107.056 80.3953 106.234 81.2289 105.196 81.6694C104.157 82.1099 102.987 82.1216 101.94 81.7018L95.1427 78.9315C94.0944 78.5042 93.2587 77.6781 92.8196 76.6347C92.3804 75.5913 92.3736 74.4162 92.8009 73.3679ZM12.4979 40.6393C12.9251 39.591 13.7513 38.7553 14.7947 38.3161C15.838 37.877 17.0131 37.8702 18.0615 38.2974L24.8588 41.0677C25.9009 41.4993 26.7298 42.3257 27.1644 43.3665C27.599 44.4073 27.6041 45.5778 27.1784 46.6223C26.7528 47.6667 25.931 48.5003 24.8927 48.9408C23.8544 49.3813 22.684 49.393 21.6371 48.9732L14.8398 46.2029C14.3206 45.9914 13.8483 45.6797 13.4496 45.2856C13.051 44.8916 12.7339 44.4228 12.5164 43.9062C12.2989 43.3895 12.1854 42.8351 12.1822 42.2746C12.179 41.7141 12.2863 41.1584 12.4979 40.6393ZM92.6466 46.2591C92.2075 45.2158 92.2008 44.0407 92.6281 42.9924C93.0553 41.9442 93.8814 41.1085 94.9248 40.6693L101.69 37.8216C102.731 37.3943 103.899 37.3955 104.939 37.8249C105.979 38.2543 106.808 39.0772 107.245 40.1145C107.681 41.1518 107.69 42.3196 107.27 43.3637C106.85 44.4078 106.035 45.2437 105.001 45.6896L98.2365 48.5373C97.1931 48.9764 96.0181 48.9831 94.9698 48.5558C93.9215 48.1286 93.0858 47.3025 92.6466 46.2591ZM12.721 79.8995C12.2819 78.8561 12.2752 77.681 12.7024 76.6328C13.1297 75.5845 13.9558 74.7488 14.9991 74.3096L21.7641 71.462C22.8053 71.0346 23.9731 71.0358 25.0134 71.4652C26.0537 71.8946 26.8824 72.7175 27.319 73.7548C27.7556 74.7921 27.7649 75.9599 27.3448 77.004C26.9247 78.0481 26.1092 78.8841 25.0759 79.3299L18.3109 82.1776C17.2675 82.6167 16.0924 82.6234 15.0441 82.1962C13.9959 81.7689 13.1602 80.9428 12.721 79.8995ZM73.741 92.6457C74.7844 92.2066 75.9594 92.1999 77.0077 92.6271C78.056 93.0544 78.8917 93.8805 79.3309 94.9238L82.1785 101.689C82.6058 102.73 82.6047 103.898 82.1753 104.938C81.7459 105.978 80.923 106.807 79.8857 107.244C78.8483 107.68 77.6806 107.69 76.6365 107.269C75.5924 106.849 74.7564 106.034 74.3105 105.001L71.4629 98.2356C71.0238 97.1922 71.0171 96.0171 71.4443 94.9688C71.8715 93.9206 72.6977 93.0849 73.741 92.6457ZM40.1007 12.7201C41.1441 12.281 42.3191 12.2743 43.3674 12.7015C44.4157 13.1287 45.2513 13.9549 45.6905 14.9982L48.5382 21.7632C48.9655 22.8044 48.9644 23.9722 48.5349 25.0125C48.1055 26.0528 47.2826 26.8814 46.2453 27.3181C45.208 27.7547 44.0403 27.7639 42.9962 27.3438C41.952 26.9237 41.1161 26.1083 40.6702 25.0749L37.8226 18.3099C37.3835 17.2666 37.3768 16.0915 37.804 15.0432C38.2312 13.9949 39.0574 13.1593 40.1007 12.7201Z" fill="#E6E7E8"/>
<path d="M88.7358 59.9995C88.7358 44.1295 75.8709 31.2641 60.0009 31.2637C44.1309 31.2632 31.2656 44.1285 31.2651 59.9985C31.2651 75.8685 44.13 88.7338 60 88.7343C75.8704 88.7348 88.7358 75.8699 88.7358 59.9995ZM38.3231 59.9995C38.3231 48.0276 48.0286 38.3221 60.0005 38.3221C71.9723 38.3221 81.6778 48.0276 81.6778 59.9995C81.6778 71.9713 71.9723 81.6768 60 81.6768C48.0281 81.6768 38.3231 71.9713 38.3231 59.9995Z" fill="#76A34F"/>
<path d="M81.0937 65.1308C83.9089 53.4945 76.7578 41.7792 65.1215 38.964C53.4851 36.1489 41.7698 43.2999 38.9547 54.9363C36.1395 66.5727 43.2906 78.288 54.927 81.1031C66.5633 83.9183 78.2786 76.7672 81.0937 65.1308Z" fill="#414042"/>
<path d="M57.4005 71.5237C56.857 71.5243 56.3188 71.4176 55.8167 71.2097C55.3145 71.0017 54.8584 70.6966 54.4746 70.3119L46.3267 62.1641C45.5591 61.3865 45.1303 60.3367 45.1338 59.244C45.1374 58.1513 45.573 57.1043 46.3457 56.3317C47.1183 55.559 48.1653 55.1233 49.258 55.1198C50.3507 55.1162 51.4005 55.5451 52.1782 56.3127L57.4005 61.5355L67.7641 51.1715C68.5418 50.4038 69.5915 49.975 70.6842 49.9785C71.7769 49.9821 72.8239 50.4177 73.5966 51.1904C74.3692 51.9631 74.8049 53.01 74.8084 54.1027C74.812 55.1955 74.3831 56.2452 73.6155 57.0229L60.326 70.3119C59.9422 70.6967 59.4862 71.0018 58.9841 71.2097C58.4821 71.4177 57.9439 71.5244 57.4005 71.5237Z" fill="#F1F2F2"/>
</svg>
