<svg width="120" height="120" viewBox="0 0 120 120" fill="none" xmlns="http://www.w3.org/2000/svg">
<g clip-path="url(#clip0_536_3910)">
<path d="M69.2585 84.375H10.5469C4.73109 84.375 0 79.6439 0 73.8281C0 72.0291 0.463594 70.309 1.37672 68.7091L36.5123 5.46562C38.3559 2.10117 41.8819 0 45.7031 0C49.5244 0 53.0503 2.10117 54.9042 5.48297L88.5019 65.8596C88.7642 66.3323 88.9143 66.859 88.9405 67.3989C88.9667 67.9389 88.8684 68.4776 88.653 68.9735C88.4367 69.4697 88.1088 69.9093 87.695 70.2582C87.2812 70.6071 86.7925 70.856 86.2669 70.9854C80.2828 72.4514 75.1123 76.7051 72.4378 82.3631C72.1526 82.965 71.7024 83.4735 71.1396 83.8296C70.5768 84.1858 69.9245 84.3749 69.2585 84.375Z" fill="#FFDF40"/>
<path d="M69.2585 84.375C70.6181 84.375 71.854 83.5922 72.4376 82.3631C75.112 76.7051 80.2826 72.4514 86.2666 70.9854C86.7922 70.856 87.2809 70.6071 87.6948 70.2582C88.1086 69.9093 88.4364 69.4697 88.6528 68.9735C88.8681 68.4776 88.9665 67.9389 88.9403 67.3989C88.9141 66.859 88.764 66.3323 88.5016 65.8596L54.9042 5.48297C53.0503 2.10117 49.5244 0 45.7031 0V84.375H69.2585Z" fill="#FFBE40"/>
<path d="M45.7031 49.2188C43.7599 49.2188 42.1875 47.6463 42.1875 45.7031V31.6406C42.1875 29.6974 43.7599 28.125 45.7031 28.125C47.6463 28.125 49.2188 29.6974 49.2188 31.6406V45.7031C49.2188 47.6463 47.6463 49.2188 45.7031 49.2188Z" fill="#4D4D80"/>
<path d="M45.7031 63.2812C47.6448 63.2812 49.2188 61.7073 49.2188 59.7656C49.2188 57.824 47.6448 56.25 45.7031 56.25C43.7615 56.25 42.1875 57.824 42.1875 59.7656C42.1875 61.7073 43.7615 63.2812 45.7031 63.2812Z" fill="#4D4D80"/>
<path d="M91.875 120C107.408 120 120 107.408 120 91.875C120 76.342 107.408 63.75 91.875 63.75C76.342 63.75 63.75 76.342 63.75 91.875C63.75 107.408 76.342 120 91.875 120Z" fill="#59ABFF"/>
<path d="M120 91.875C120 76.3418 107.408 63.75 91.875 63.75V120C107.408 120 120 107.408 120 91.875Z" fill="#4D87FF"/>
<path d="M91.875 112.969C103.525 112.969 112.969 103.525 112.969 91.875C112.969 80.2252 103.525 70.7812 91.875 70.7812C80.2252 70.7812 70.7812 80.2252 70.7812 91.875C70.7812 103.525 80.2252 112.969 91.875 112.969Z" fill="#F3F5F9"/>
<path d="M112.969 91.875C112.969 80.2432 103.507 70.7812 91.875 70.7812V112.969C103.507 112.969 112.969 103.507 112.969 91.875Z" fill="#E1E6F0"/>
<path d="M102.422 95.3906H91.875C89.9318 95.3906 88.3594 93.8182 88.3594 91.875V81.3281C88.3594 79.3849 89.9318 77.8125 91.875 77.8125C93.8182 77.8125 95.3906 79.3849 95.3906 81.3281V88.3594H102.422C104.365 88.3594 105.938 89.9318 105.938 91.875C105.938 93.8182 104.365 95.3906 102.422 95.3906Z" fill="#4D4D80"/>
<path d="M102.422 95.3906C104.365 95.3906 105.938 93.8182 105.938 91.875C105.938 89.9318 104.365 88.3594 102.422 88.3594H95.3906V81.3281C95.3906 79.3849 93.8182 77.8125 91.875 77.8125V95.3906H102.422Z" fill="#443D66"/>
<path d="M49.2188 59.7656C49.2188 57.8241 47.6447 56.25 45.7031 56.25V63.2812C47.6447 63.2812 49.2188 61.7072 49.2188 59.7656ZM49.2188 45.7031V31.6406C49.2188 29.6974 47.6463 28.125 45.7031 28.125V49.2188C47.6463 49.2188 49.2188 47.6463 49.2188 45.7031Z" fill="#443D66"/>
</g>
<defs>
<clipPath id="clip0_536_3910">
<rect width="120" height="120" fill="white"/>
</clipPath>
</defs>
</svg>
