<svg width="330" height="115" viewBox="0 0 330 115" fill="none" xmlns="http://www.w3.org/2000/svg">
<path d="M88.5156 84.6425H113.061L117.693 89.3413L122.783 84.1408L118.034 79.3258V54.9082H88.54V54.9633H88.5156V84.6425ZM108.459 73.6023C108.27 73.8623 108.057 74.1101 107.825 74.3426C107.593 74.5751 107.347 74.7862 107.091 74.9758C104.832 76.6491 101.724 76.6491 99.4656 74.9789C99.2096 74.7892 98.9627 74.5751 98.7311 74.3426C98.4995 74.1101 98.2892 73.8623 98.1002 73.6053C96.4363 71.3386 96.4332 68.2152 98.1002 65.9485C98.2892 65.6915 98.4995 65.4437 98.7311 65.2112C98.9627 64.9787 99.2096 64.7677 99.4686 64.5749C101.727 62.9047 104.835 62.9047 107.094 64.5749C107.35 64.7646 107.596 64.9757 107.828 65.2081C108.06 65.4406 108.273 65.6884 108.462 65.9454C110.126 68.2122 110.126 71.3324 108.462 73.5962L108.459 73.6023Z" fill="#253D89"/>
<path d="M79.9808 51.3506H70.2286C69.6282 48.475 67.0865 46.3092 64.0451 46.3092C61.0036 46.3092 58.4589 48.475 57.8615 51.3506H53.019C52.7203 48.7718 50.6784 46.7191 48.1093 46.4224V40.396C47.6613 40.396 47.2286 40.3379 46.8171 40.2247C44.6716 39.6526 43.0869 37.6826 43.0869 35.3516C43.0869 33.0205 44.6716 31.0535 46.8171 30.4784C47.2286 30.3683 47.6644 30.3071 48.1093 30.3071V19.3525" fill="#253D89"/>
<path d="M46.8141 19.3586V29.1477C43.9464 29.7473 41.7917 32.3016 41.7917 35.3546C41.7917 38.4076 43.9494 40.9589 46.8141 41.5615V46.4224C44.245 46.7191 42.2001 48.7718 41.9015 51.3506H35.9008C35.9008 51.8003 35.8429 52.2346 35.7301 52.6476C35.1602 54.8012 33.1976 56.392 30.8753 56.392C28.5531 56.392 26.5935 54.8012 26.0205 52.6476C25.9108 52.2346 25.8529 51.7972 25.8529 51.3506H14.9365" fill="#F37321"/>
<path d="M14.9443 52.6477H24.6996C25.3 55.5232 27.8417 57.6891 30.8831 57.6891C33.9246 57.6891 36.4693 55.5232 37.0667 52.6477H41.9093C42.2049 55.2265 44.2529 57.2822 46.822 57.579V63.6023C47.2669 63.6023 47.7027 63.6604 48.1141 63.7736C50.2596 64.3457 51.8444 66.3157 51.8444 68.6467C51.8444 70.9778 50.2596 72.9448 48.1141 73.5199C47.6997 73.63 47.2669 73.6912 46.822 73.6912V84.6458" fill="#253D89"/>
<path d="M79.9799 52.6476H69.0666C69.0666 52.1979 69.0087 51.7635 68.8989 51.3505C68.326 49.1969 66.3664 47.6062 64.0442 47.6062C61.7219 47.6062 59.7623 49.1969 59.1894 51.3505C59.0797 51.7635 59.0218 52.2009 59.0218 52.6476H53.018C52.7224 55.2264 50.6775 57.279 48.1084 57.5788V62.4397C50.9731 63.0393 53.1308 65.5936 53.1308 68.6466C53.1308 71.6996 50.9731 74.2539 48.1084 74.8535V84.6426L60.9478 71.7546L67.9024 78.7355L74.0951 72.5194L67.1405 65.5386L79.9799 52.6506V52.6476Z" fill="#F37321"/>
<path d="M51.7646 51.9989C51.7646 52.2191 51.7493 52.4363 51.7158 52.6474C51.4354 54.5104 49.9665 55.9879 48.1105 56.2694C47.9002 56.303 47.6838 56.3183 47.4614 56.3183C47.2389 56.3183 47.0256 56.303 46.8153 56.2694C44.9593 55.9879 43.4873 54.5104 43.207 52.6474C43.1734 52.4363 43.1582 52.2191 43.1582 51.9989C43.1582 51.7786 43.1734 51.5614 43.207 51.3473C43.4873 49.4843 44.9593 48.0098 46.8153 47.7284C47.0256 47.6947 47.2419 47.6794 47.4614 47.6794C47.6808 47.6794 47.8972 47.6947 48.1105 47.7284C49.9665 48.0098 51.4354 49.4843 51.7158 51.3473C51.7493 51.5584 51.7646 51.7756 51.7646 51.9989Z" fill="#253D89"/>
<path d="M131.159 24.0148V19.1294L126.356 19.1936V23.9505L131.159 24.0148Z" fill="#F37321"/>
<path d="M308.055 23.9077L308.058 19.0193L303.252 19.0835V23.8435L308.055 23.9077Z" fill="#F37321"/>
<path d="M313.769 23.9414V19.053H308.899L308.963 23.8772L313.769 23.9414Z" fill="#F37321"/>
<path d="M293.288 24.7459V38.4812H286.419H247.751V24.7459H220.381V19.0193H213.585V38.4812H170.581V31.6594H177.468L184.264 24.7459H170.581L163.785 31.6594V38.4812H131.157V24.7459L124.361 31.6594V38.4812H95.2479V19.0193H88.3604V45.3947H313.768V24.7459H293.285H293.288ZM240.958 38.4812H220.384V31.6594H240.958V38.4812ZM308.883 35.8473C308.548 38.0804 306.783 39.8517 304.561 40.1912C304.308 40.231 304.046 40.2493 303.784 40.2493C303.522 40.2493 303.263 40.2279 303.01 40.1912C300.785 39.8547 299.021 38.0835 298.683 35.8473C298.643 35.5965 298.625 35.3365 298.625 35.0703C298.625 34.8042 298.643 34.5441 298.683 34.2902C299.021 32.0571 300.782 30.2859 303.01 29.9494C303.263 29.9096 303.522 29.8913 303.784 29.8913C304.046 29.8913 304.308 29.9096 304.561 29.9494C306.786 30.289 308.548 32.0571 308.883 34.2902C308.922 34.5441 308.941 34.8042 308.941 35.0703C308.941 35.3365 308.919 35.5965 308.883 35.8473Z" fill="#F37321"/>
<path d="M242.913 61.7885V54.9055H224.299H217.445V61.7885V66.3343V73.2142V77.76V84.6429H224.299H242.913V77.76H224.299V73.2142H242.913V66.3343H224.299V61.7885H242.913Z" fill="#253D89"/>
<path d="M165.35 60.5128H155.872V54.9055H181.688V60.5128H172.207V84.6398H165.35V60.5128Z" fill="#253D89"/>
<path d="M201.777 78.2704H188.024L185.4 84.6425H178.375L191.58 54.9082H198.352L211.597 84.6425H204.401L201.777 78.2704ZM199.62 73.0455L194.923 61.6627L190.227 73.0455H199.623H199.62Z" fill="#253D89"/>
<path d="M149.361 78.2704H135.608L132.984 84.6425H125.959L139.164 54.9082H145.936L159.181 84.6425H151.985L149.361 78.2704ZM147.204 73.0455L142.507 61.6627L137.811 73.0455H147.207H147.204Z" fill="#253D89"/>
<path d="M275.93 54.9055V84.6398H270.301L255.533 66.5851V84.6398H248.761V54.9055H254.433L269.159 72.9603V54.9055H275.93Z" fill="#253D89"/>
<path d="M304.38 78.2704H290.626L288.002 84.6425H280.978L294.183 54.9082H300.954L314.199 84.6425H307.004L304.38 78.2704ZM302.222 73.0455L297.526 61.6627L292.83 73.0455H302.225H302.222Z" fill="#253D89"/>
<path d="M103.279 75.0522C106.184 75.0522 108.539 72.6882 108.539 69.7722C108.539 66.8561 106.184 64.4922 103.279 64.4922C100.374 64.4922 98.0186 66.8561 98.0186 69.7722C98.0186 72.6882 100.374 75.0522 103.279 75.0522Z" fill="#F37321"/>
<path d="M303.783 38.9154C305.899 38.9154 307.614 37.1938 307.614 35.0701C307.614 32.9464 305.899 31.2249 303.783 31.2249C301.667 31.2249 299.952 32.9464 299.952 35.0701C299.952 37.1938 301.667 38.9154 303.783 38.9154Z" fill="#253D89"/>
</svg>
